<?xml version="1.0" standalone="no"?>
<svg xmlns="http://www.w3.org/2000/svg" viewBox="0 0 166.128 29" width="166.128" height="29"><g fill="#ff5576" color="#ff5576" transform="translate(0, 0) scale(0.6904762)"><svg width="42.0" height="42.0" x="0.0" y="0.0" viewBox="0 0 42 42"><path d="M35,7H7C5.9,7,5,7.9,5,9v19c0,1.1,0.9,2,2,2h10v1c0,2.4-0.8,3-4,3c-0.6,0-1,0.4-1,1s0.4,1,1,1h16  c0.6,0,1-0.4,1-1s-0.4-1-1-1c-3.2,0-4-0.6-4-3v-1h10c1.1,0,2-0.9,2-2V9C37,7.9,36.1,7,35,7z M35,9v16H7V9H35z M23.7,34h-5.4  c0.4-0.7,0.7-1.7,0.7-3v-1h4v1C23,32.3,23.3,33.3,23.7,34z M7,28v-1h28v1H7z"></path><path d="M18,19c-0.6,0-1,0.4-1,1s0.4,1,1,1h2v1c0,0.6,0.4,1,1,1s1-0.4,1-1v-1h1c1.1,0,2-0.9,2-2v-1c0-1.1-0.9-2-2-2  h-4v-1h5c0.6,0,1-0.4,1-1s-0.4-1-1-1h-2v-1c0-0.6-0.4-1-1-1s-1,0.4-1,1v1h-1c-1.1,0-2,0.9-2,2v1c0,1.1,0.9,2,2,2h4v1H18z"></path></svg></g><line x1="41" y1="1" x2="41" y2="28" stroke="#0b0cac" stroke-linecap="round"></line><path fill="#0b0cac" fill-rule="nonzero" d="M0 18.14L0 4.78L3.36 4.49L3.36 6.22Q4.39 5.30 5.39 4.81Q6.38 4.32 7.22 4.32L7.22 4.32Q8.50 4.32 9.30 5.24Q10.10 6.17 10.10 7.73L10.10 7.73L10.10 17.86L6.74 18.14L6.74 9Q6.74 7.20 5.52 7.20L5.52 7.20Q5.11 7.20 4.62 7.44Q4.13 7.68 3.36 8.14L3.36 8.14L3.36 17.86L0 18.14ZM17.33 18.31Q14.90 18.31 13.60 16.39Q12.29 14.47 12.29 11.28L12.29 11.28Q12.29 8.11 13.58 6.22Q14.88 4.32 17.33 4.32L17.33 4.32Q19.75 4.32 21.08 6.22Q22.42 8.11 22.42 11.28L22.42 11.28Q22.42 14.45 21.08 16.38Q19.75 18.31 17.33 18.31L17.33 18.31ZM17.33 15.82Q18.41 15.82 18.72 14.50Q19.03 13.18 19.03 11.26L19.03 11.26Q19.03 9.34 18.72 8.02Q18.41 6.70 17.33 6.70L17.33 6.70Q16.25 6.70 15.96 7.94Q15.67 9.19 15.67 10.99L15.67 10.99Q15.67 13.20 15.96 14.51Q16.25 15.82 17.33 15.82L17.33 15.82ZM27.60 18.31Q26.28 18.31 25.44 17.39Q24.60 16.46 24.60 14.90L24.60 14.90L24.60 4.78L27.96 4.49L27.96 13.54Q27.96 14.50 28.27 14.92Q28.58 15.34 29.23 15.34L29.23 15.34Q29.74 15.34 30.31 15.08Q30.89 14.83 31.34 14.28L31.34 14.28L31.34 4.78L34.73 4.49L34.73 17.86L31.34 18.14L31.34 16.42Q30.50 17.38 29.51 17.84Q28.51 18.31 27.60 18.31L27.60 18.31ZM42.24 18.26Q40.61 18.26 39.48 17.44Q38.35 16.61 38.35 14.50L38.35 14.50L38.35 7.03L36.48 7.03L36.62 4.49L38.45 4.49L38.78 1.56L41.71 1.15L41.71 4.49L44.50 4.49L44.35 7.03L41.74 7.03L41.74 14.47Q41.74 15.19 42.10 15.50Q42.46 15.82 43.15 15.82L43.15 15.82Q43.54 15.82 44.45 15.67L44.45 15.67L44.45 18Q44.35 18.02 43.69 18.14Q43.03 18.26 42.24 18.26L42.24 18.26ZM46.27 18.14L46.27 4.78L49.56 4.49L49.56 6.22Q50.30 5.35 51.28 4.84Q52.25 4.32 53.21 4.32L53.21 4.32Q54.72 4.32 55.20 6.43L55.20 6.43Q56.78 4.32 58.75 4.32L58.75 4.32Q60.05 4.32 60.60 5.35Q61.15 6.38 61.15 8.42L61.15 8.42L61.15 17.86L57.84 18.14L57.84 8.59Q57.84 7.94 57.60 7.57Q57.36 7.20 57.05 7.20L57.05 7.20Q56.54 7.20 56.10 7.48Q55.66 7.75 55.34 8.16L55.34 8.16L55.34 17.86L52.06 18.14L52.06 8.57Q52.06 7.90 51.85 7.55Q51.65 7.20 51.38 7.20L51.38 7.20Q50.90 7.20 50.40 7.49Q49.90 7.78 49.56 8.16L49.56 8.16L49.56 17.86L46.27 18.14ZM66.17 18.31Q65.30 18.31 64.61 17.77Q63.91 17.23 63.53 16.31Q63.14 15.38 63.14 14.23L63.14 14.23Q63.14 11.62 64.93 10.55Q66.72 9.48 69.10 9.34L69.10 9.34Q69.10 8.04 68.93 7.42Q68.76 6.79 68.11 6.79L68.11 6.79Q67.56 6.79 67.27 7.22Q66.98 7.66 66.91 8.33L66.91 8.33L63.62 7.75Q63.86 5.90 65.14 5.11Q66.41 4.32 68.11 4.32L68.11 4.32Q70.30 4.32 71.39 5.47Q72.48 6.62 72.48 8.47L72.48 8.47L72.48 15.46Q72.48 16.58 72.84 17.86L72.84 17.86L69.55 18.14L69.17 16.49Q68.74 17.26 67.90 17.78Q67.06 18.31 66.17 18.31L66.17 18.31ZM67.73 15.91Q68.14 15.91 68.41 15.72Q68.69 15.53 69.10 15.10L69.10 15.10L69.10 11.35Q67.90 11.35 67.18 12Q66.46 12.65 66.46 14.02L66.46 14.02Q66.46 14.93 66.78 15.42Q67.10 15.91 67.73 15.91L67.73 15.91ZM75.26 18.14L75.26 4.78L78.62 4.49L78.62 6.67Q79.34 5.64 80.41 5.00Q81.48 4.37 83.14 4.37L83.14 4.37L83.14 7.66Q82.27 7.66 80.87 7.96Q79.46 8.26 78.62 9L78.62 9L78.62 17.86L75.26 18.14ZM95.14 17.30L92.16 18.31L89.42 11.59L88.32 13.06L88.32 18L84.96 18L84.96 0.43L88.32 0L88.32 8.93L91.75 4.49L95.40 4.49L91.61 9.36L95.14 17.30ZM101.26 18.31Q98.86 18.31 97.58 16.40Q96.31 14.50 96.31 11.33L96.31 11.33Q96.31 8.11 97.61 6.22Q98.90 4.32 101.38 4.32L101.38 4.32Q103.73 4.32 104.98 6.22Q106.22 8.11 106.22 11.33L106.22 11.33Q106.22 11.52 106.15 11.60Q106.08 11.69 106.08 11.71L106.08 11.71L99.67 11.71Q99.67 13.27 100.08 14.56Q100.49 15.84 101.33 15.84L101.33 15.84Q102.26 15.84 102.72 14.76Q103.18 13.68 103.20 13.63L103.20 13.63L105.74 14.59Q105.24 16.32 104.14 17.32Q103.03 18.31 101.26 18.31L101.26 18.31ZM99.67 9.77L102.91 9.77Q102.91 8.33 102.53 7.49Q102.14 6.65 101.33 6.65L101.33 6.65Q100.92 6.65 100.54 7.06Q100.15 7.46 99.91 8.18Q99.67 8.90 99.67 9.77L99.67 9.77ZM112.87 18.26Q111.24 18.26 110.11 17.44Q108.98 16.61 108.98 14.50L108.98 14.50L108.98 7.03L107.11 7.03L107.26 4.49L109.08 4.49L109.42 1.56L112.34 1.15L112.34 4.49L115.13 4.49L114.98 7.03L112.37 7.03L112.37 14.47Q112.37 15.19 112.73 15.50Q113.09 15.82 113.78 15.82L113.78 15.82Q114.17 15.82 115.08 15.67L115.08 15.67L115.08 18Q114.98 18.02 114.32 18.14Q113.66 18.26 112.87 18.26L112.87 18.26Z" transform="translate(51, 5.344)"></path></svg>
